# xmcd
#
# Track frame offsets: 
#        150
#        17451
#        37037
#        58760
#        79818
#        102511
#        122750
#        140838
#        160203
#        180642
#        200016
#        217927
#        238053
#        256507
#
# Disc length: 3706 seconds
#
# Revision: 0
# Processed by: cddbd v1.5.2PL0 Copyright (c) Steve Scherf et al.
# Submitted via: ExactAudioCopyFreeDBPlugin 1.0
#
DISCID=c30e780e
DTITLE=群星 - DTSES滇情园萨克斯
DYEAR=2000
DGENRE=DTSES
TTITLE0=月亮升起来
TTITLE1=月夜
TTITLE2=阿诗玛
TTITLE3=有一个美丽的地方
TTITLE4=月光下的风尾竹
TTITLE5=小河淌水
TTITLE6=远方的客人请你留下来
TTITLE7=情调
TTITLE8=采茶
TTITLE9=情深谊长
TTITLE10=十大姐
TTITLE11=绣荷花
TTITLE12=多情的巴乌
TTITLE13=回家
EXTD=
EXTT0=
EXTT1=
EXTT2=
EXTT3=
EXTT4=
EXTT5=
EXTT6=
EXTT7=
EXTT8=
EXTT9=
EXTT10=
EXTT11=
EXTT12=
EXTT13=
PLAYORDER=
